# xmcd CD database file
#
# Track frame offsets:
#	150
#	17154
#	33723
#	58794
#	75210
#	102717
#	127266
#	152493
#
# Disc length: 2242 seconds
#
# Revision: 0
# Processed by: cddbd v1.5.2PL0 Copyright (c) Steve Scherf et al.
# Submitted via: CDex 1.70beta2
#
DISCID=6508c008
DTITLE=Mark Kitrick - Blue-Shift
DYEAR=2001
DGENRE=New Age
TTITLE0=Full Circle
TTITLE1=Dream
TTITLE2=Miles Does
TTITLE3=Lagoon
TTITLE4=Trouble
TTITLE5=Tortola
TTITLE6=Caravan
TTITLE7=Dream Too
EXTD=YEAR: 2001
EXTT0=
EXTT1=
EXTT2=
EXTT3=
EXTT4=
EXTT5=
EXTT6=
EXTT7=
PLAYORDER=
